PathFileType	4	(X/Y/Z)	D:\TRACE\spot_10-12-23\spot_arm_body_motion_1_4-v60.trc
DataRate	CameraRate	NumFrames	NumMarkers	Units	OrigDataRate	OrigDataStartFrame	OrigNumFrames
100.00	100.00	      38	9	mm	100.00	5251	      7000
Frame#	Time	front left toe			Front right toe			aft left toe			aft right toe			Arm			FL body			FR body			AL Body			AR Body			
		X1	Y1	Z1	X2	Y2	Z2	X3	Y3	Z3	X4	Y4	Z4	X5	Y5	Z5	X6	Y6	Z6	X7	Y7	Z7	X8	Y8	Z8	X9	Y9	Z9	

5251	52.500	96.39016	62.92712	-414.70673	508.33157	33.54403	-483.65109	272.39072	18.13119	171.03215	641.67938	21.05182	73.38817	177.46906	753.92743	-764.79797	207.00545	594.72748	-471.95227	355.74069	599.22418	-515.21063	453.62308	561.85309	374.85910	590.10016	560.91302	337.94406	
5252	52.510	91.06516	77.37963	-413.40176	508.42233	33.89741	-483.46976	272.48083	18.01710	171.19290	641.56384	20.86939	74.24026	178.41086	754.28619	-764.50659	209.94919	594.54285	-471.14990	359.42371	599.67053	-514.38934	456.95755	561.69025	375.68091	593.13531	561.32178	338.65622	
5253	52.520	89.91228	93.43169	-418.38922	508.91263	34.03034	-483.37512	273.13309	18.18381	171.38100	642.22015	20.27708	73.44606	179.01984	754.66943	-764.07269	212.68184	594.30060	-470.06082	361.55670	599.97827	-513.41785	459.85297	561.16821	376.47702	596.23126	561.21680	339.48407	
5254	52.530	85.12036	109.84920	-421.91171	508.43173	34.44718	-483.55463	274.12067	18.62370	171.17830	643.13574	19.82732	73.97485	178.84853	754.71436	-763.59857	214.91335	595.13983	-469.17828	363.66379	600.80499	-512.55713	463.09399	560.58765	377.29025	599.68518	560.76599	340.36371	
5255	52.540	87.30325	122.65118	-424.31021	508.30951	35.05046	-483.31461	274.38351	19.08624	171.51544	642.92401	19.23323	73.52625	178.80524	754.71063	-763.26953	216.63060	596.05927	-468.06308	365.45532	601.60455	-511.72012	466.36105	559.92908	378.04483	602.36725	560.20636	340.50787	
5256	52.550	88.35365	131.35661	-422.59290	508.56427	35.38503	-483.16074	274.55402	19.23604	171.67874	643.27136	19.13769	73.72668	178.91565	754.86255	-762.94696	218.25195	597.00397	-466.88626	366.72009	602.41223	-510.56674	468.71439	559.35889	378.64398	605.72174	559.55286	341.28622	
5257	52.560	90.23595	138.72260	-419.43500	508.83334	35.98985	-482.71878	274.87039	19.24051	171.87247	643.86444	18.93909	73.78890	179.33488	754.95154	-762.76416	219.93510	597.43103	-465.85251	368.23251	603.20441	-510.01971	471.13309	558.67596	379.38525	607.25824	559.29871	341.62674	
5258	52.570	93.87685	150.01929	-416.77994	508.76965	35.81147	-482.95950	275.03543	19.12879	171.83476	644.11792	19.02045	73.94392	180.56744	755.08966	-763.08990	221.12622	597.80994	-465.10391	369.90891	603.60077	-509.22766	473.23190	558.32477	379.80246	609.54596	558.55988	341.97610	
5259	52.580	92.89384	162.70517	-413.10281	508.93732	35.82006	-482.96182	275.12643	19.11458	172.05992	644.00037	19.12552	74.17785	181.90237	755.56830	-763.31555	222.52919	597.76849	-464.31512	370.94363	603.63190	-508.67212	475.20712	558.22455	380.52280	611.47150	558.66119	342.58841	
5260	52.590	94.18044	175.93413	-412.07355	509.10742	35.86469	-482.83569	275.22144	19.03460	172.18628	644.04810	19.36141	74.33139	183.28471	756.27881	-763.38269	223.26447	597.11621	-463.75104	371.93317	603.21576	-508.02393	476.95010	558.50531	381.06729	612.84937	558.89758	342.90091	
5261	52.600	94.49641	188.72867	-410.17166	508.94992	36.05106	-482.85776	275.29428	19.10963	172.25441	644.20648	19.40942	74.52932	185.09805	757.78729	-763.26801	223.83229	596.56079	-462.79105	371.94672	603.02563	-507.87601	478.60748	558.63898	381.64554	614.44415	559.03033	343.20062	
5262	52.610	96.73389	196.52692	-407.03586	508.98254	36.24152	-482.82071	275.40161	19.27113	172.47255	644.19659	19.19033	74.48432	187.23572	760.16541	-762.60834	223.99834	596.02759	-462.24237	373.06378	601.94562	-507.11356	479.67630	558.83167	381.85349	616.20532	559.33325	343.76297	
5263	52.620	101.45499	200.58397	-402.53812	508.83878	36.56686	-482.79440	275.45871	19.04313	172.62535	644.37152	19.13267	74.51295	189.89616	763.44531	-761.36761	224.06682	595.64606	-461.71176	373.15717	601.19366	-506.41806	480.42865	558.84381	382.11603	616.66968	559.56061	344.30905	
5264	52.630	106.51753	201.06050	-397.48300	508.62610	36.86594	-482.67828	275.42218	18.92206	172.69609	644.33380	18.79744	74.41026	193.19066	767.49414	-759.81122	224.11263	595.63171	-461.28647	373.50769	601.01117	-506.17795	480.99402	558.57684	382.45828	617.24231	559.16675	344.41861	
5265	52.640	111.72881	199.60634	-392.99023	508.52112	37.19131	-482.57565	275.40570	18.83865	172.72951	644.34155	18.73512	74.45027	196.17384	771.45953	-758.10883	224.36586	595.65234	-460.75253	372.25629	601.25470	-505.65274	481.59082	558.32343	383.17929	617.80273	558.21405	344.43106	
5266	52.650	115.61493	197.13422	-388.85965	508.69724	37.52955	-482.25656	275.30911	18.60852	172.69730	644.37714	18.93095	74.65346	199.16663	775.02069	-756.45044	224.71295	595.92670	-460.34769	372.66791	601.50781	-505.20389	481.45862	557.46332	383.35626	617.41272	557.68610	344.90161	
5267	52.660	118.98550	196.57314	-386.13550	508.72388	37.77111	-482.16367	275.11145	18.33991	172.76466	644.18195	19.03630	74.89172	201.67192	778.20367	-754.82245	225.04924	596.52911	-459.95395	373.00696	602.04395	-504.77301	480.89426	556.81873	383.85968	617.04858	556.74896	345.35098	
5268	52.670	120.96727	196.54240	-383.97198	508.74295	38.05811	-482.03619	274.80923	18.04766	172.90413	643.95825	18.95982	75.05529	203.41611	780.41779	-753.23694	225.65044	597.43121	-459.72583	374.01559	602.79224	-504.53366	480.22070	555.95178	384.51611	616.20239	555.74805	346.12659	
5269	52.680	121.20048	195.15028	-382.52216	509.23618	38.17141	-481.53259	274.45715	17.75965	173.09506	643.72943	18.89200	75.29638	203.99969	782.12585	-751.60565	226.33685	598.47162	-459.38147	374.59134	603.68921	-503.33246	479.34915	554.92566	385.08835	615.59283	555.30219	347.62146	
5270	52.690	120.17547	187.95314	-382.71356	509.04477	38.36580	-481.46460	274.13211	17.71148	173.17122	643.23199	18.74729	75.58896	204.09268	782.62592	-750.41144	227.11761	599.94012	-458.67776	375.32419	604.87164	-502.68399	478.86975	554.24426	386.11624	614.99756	553.97833	348.24933	
5271	52.700	117.01829	177.90625	-383.78281	508.91577	38.64803	-481.33188	273.65073	17.79628	173.25117	642.92059	18.75257	75.87759	203.29489	782.71979	-749.51794	227.58063	601.38953	-458.10043	376.02124	605.99451	-501.90036	478.13586	553.91888	387.02393	614.72791	553.65015	349.86432	
5272	52.710	115.32704	166.82669	-385.81812	508.77368	38.89650	-481.16153	273.28079	17.81933	173.46280	642.71008	18.69963	75.96520	202.01790	782.19580	-748.84735	227.93918	602.82599	-457.49255	376.55679	607.23907	-501.02661	477.57352	552.97626	387.72400	614.13354	552.45819	350.44885	
5273	52.720	114.22353	158.93434	-386.75430	508.45752	39.05471	-481.21170	272.95050	17.79447	173.43890	642.47821	18.73014	76.09220	201.09380	781.49524	-748.46283	228.07320	603.95563	-456.81198	376.37115	608.35449	-500.29156	476.91446	552.64917	388.62982	614.49481	552.67407	352.74374	
5274	52.730	112.95009	151.44179	-386.43863	508.33176	39.21324	-481.14432	272.74820	17.73730	173.52841	642.25427	18.71128	76.14252	199.89075	780.51355	-748.46094	227.94452	604.76880	-456.12640	376.49637	609.40503	-499.47290	476.40598	552.11761	389.10440	612.66956	551.75220	352.16022	
5275	52.740	110.95811	144.13213	-386.54236	508.05032	39.27497	-481.23364	272.73578	17.64419	173.65495	642.14191	18.78165	76.24851	199.17319	779.63239	-748.47040	227.53162	605.27759	-455.37280	375.31940	610.17206	-498.54468	475.94876	551.88245	389.93555	612.97760	551.59314	352.76328	
5276	52.750	107.05968	135.74336	-388.17825	507.36237	39.68464	-481.28711	272.72260	17.63829	173.77878	641.86731	18.89490	76.20475	198.70581	778.47272	-748.75061	226.49913	605.69739	-454.52328	374.85934	610.97113	-498.23145	476.11853	551.79968	390.42767	612.87128	551.77631	353.11288	
5277	52.760	101.95368	126.83218	-391.43518	507.17157	39.64080	-481.65527	272.62964	17.76899	174.00569	641.61438	18.87157	76.17308	198.49593	777.64618	-749.17810	225.09843	606.22784	-453.72208	373.57700	611.48706	-497.48279	476.20807	551.86041	390.68793	612.73096	552.24030	353.64484	
5278	52.770	97.54961	117.48860	-395.76184	506.19986	40.39162	-480.98218	272.43726	17.88284	174.12804	641.35175	18.73615	76.04713	198.33800	776.84808	-749.55933	223.45407	606.64032	-452.62039	371.74438	612.06604	-496.66782	476.10355	551.83301	391.24484	612.70050	552.30347	353.85040	
5279	52.780	94.69650	107.77972	-399.49036	505.35486	40.70961	-481.20670	272.20041	17.91714	174.25256	641.10693	18.55218	75.97274	198.29364	776.41455	-750.01398	221.77602	606.92651	-451.73343	369.82687	612.49451	-496.07980	475.79742	551.55359	391.57568	612.46649	552.16699	353.88046	
5280	52.790	93.26664	97.16268	-401.72928	504.72180	41.08544	-481.30545	271.93475	17.85533	174.36046	640.65033	18.30041	75.81799	198.57626	776.11456	-750.56940	219.79480	607.07434	-451.10767	366.85437	613.13684	-496.06046	475.64212	551.35657	391.97440	611.92242	552.08124	353.85626	
5281	52.800	91.05013	83.83663	-402.92841	504.37939	41.32702	-481.24841	271.62891	17.99233	174.42531	640.23853	18.22183	75.81261	199.38107	776.04700	-751.20020	217.84613	606.74628	-450.59952	365.84195	612.81464	-495.41046	475.23322	551.41199	392.09909	610.67462	552.08258	353.52472	
5282	52.810	88.99073	67.41094	-404.33502	503.85947	41.56602	-481.24994	271.17328	17.95388	174.52089	640.15021	18.08980	75.82452	200.06633	776.10345	-751.45081	215.90518	606.65533	-450.32236	363.64352	612.61938	-494.98318	473.43997	551.62231	392.15079	609.61597	551.98090	353.45389	
5283	52.820	87.06178	50.04747	-406.13043	503.34036	41.93656	-481.08246	270.46219	17.81922	174.63948	640.10870	17.89290	75.80035	200.87383	776.33289	-751.93658	214.04903	606.39587	-449.84421	361.99969	612.50580	-494.97702	472.03998	551.44147	392.33246	608.55835	551.94800	353.87585	
5284	52.830	87.42787	39.74641	-407.57928	503.13834	42.05234	-480.81235	269.78580	17.55348	174.52495	639.67969	17.68664	75.84215	201.50296	776.52472	-752.28461	211.91965	606.02466	-449.83585	359.14258	612.55054	-495.28253	469.99155	551.04333	392.54913	605.76770	551.82874	353.69687	
5285	52.840	86.29661	39.67885	-407.59317	503.16611	42.03700	-480.45239	268.83286	17.60608	174.60434	639.69916	17.74603	76.03982	201.85609	776.75201	-752.43811	209.98044	605.86639	-450.38446	358.02213	612.23438	-495.09457	467.31113	550.45612	392.27103	602.99554	551.40814	353.61316	
5286	52.850	85.31730	39.07358	-407.30243	502.46667	42.50825	-481.41077	267.99039	16.72276	174.89005	638.69342	18.76201	75.27783	202.06482	777.03094	-752.50061	207.71988	605.90228	-450.69760	355.67572	612.34790	-495.28665	464.03656	550.24567	392.07153	600.07434	551.21893	353.55698	
5287	52.860	84.15601	37.83096	-407.31024	500.95432	43.95232	-480.73438	265.69669	15.77216	174.85893	635.90387	20.55115	76.66347	202.24037	777.58240	-752.37079	205.24921	606.22815	-450.89676	352.94977	612.53210	-496.04947	461.75751	550.54871	391.87784	598.33563	551.03925	353.41235	
5288	52.870	82.82893	37.92453	-406.64752	499.38199	44.07655	-481.10175	263.82593	15.05803	175.51405	633.68719	20.85984	77.00343	201.90956	778.32013	-752.09204	202.96394	607.38745	-451.38800	350.80756	612.35101	-495.95755	458.99789	550.84460	391.30356	595.12073	550.24384	352.89914	
